<?xml version="1.0" standalone="no"?>
<!DOCTYPE svg PUBLIC "-//W3C//DTD SVG 20010904//EN"
 "http://www.w3.org/TR/2001/REC-SVG-20010904/DTD/svg10.dtd">
<svg version="1.0" xmlns="http://www.w3.org/2000/svg"
 width="200.000000pt" height="200.000000pt" viewBox="0 0 200.000000 200.000000"
 preserveAspectRatio="xMidYMid meet">
<metadata>
Created by potrace 1.14, written by Peter Selinger 2001-2017
</metadata>
<g transform="translate(0.000000,200.000000) scale(0.100000,-0.100000)"
fill="#000000" stroke="none">
<path d="M0 1000 l0 -1000 1000 0 1000 0 0 1000 0 1000 -1000 0 -1000 0 0
-1000z m1134 601 c66 -33 122 -91 154 -160 35 -74 37 -192 5 -263 -30 -66 -95
-133 -162 -165 l-56 -28 -255 0 c-248 0 -255 1 -255 20 0 19 8 20 125 25 121
5 124 5 98 22 -15 10 -51 18 -89 20 -56 3 -64 5 -64 23 0 16 8 21 43 23 24 2
42 6 40 10 -39 72 -43 91 -43 182 0 72 5 103 18 128 l18 32 -70 0 c-48 0 -72
4 -81 15 -22 27 0 35 93 35 88 1 94 2 125 30 17 16 32 32 32 35 0 3 -31 5 -70
5 -64 0 -70 2 -70 21 0 20 4 20 208 17 196 -3 210 -4 256 -27z m242 -183 c72
-63 101 -171 70 -257 -10 -27 -9 -44 3 -92 20 -76 12 -84 -60 -63 -44 13 -62
14 -97 5 -23 -6 -58 -11 -77 -11 l-34 0 55 51 c109 104 141 244 88 383 -10 26
12 19 52 -16z m452 -669 c2 -98 4 -107 23 -112 15 -4 20 -12 17 -29 -2 -18
-10 -24 -34 -26 -56 -5 -64 14 -64 147 0 65 3 121 7 125 4 4 16 6 28 4 18 -3
20 -11 23 -109z m-360 54 c3 -26 8 -32 30 -35 21 -2 28 -9 30 -30 3 -23 -1
-27 -25 -30 -22 -2 -29 -9 -31 -30 -3 -22 2 -30 23 -38 38 -15 31 -54 -10 -58
-46 -4 -67 17 -73 76 -3 35 -9 52 -18 52 -19 0 -18 49 1 56 8 4 15 18 15 34 0
50 53 53 58 3z m-1184 -46 c30 -22 16 -52 -24 -53 -57 -1 -60 -3 -60 -28 0
-28 13 -35 56 -29 27 4 33 1 39 -18 9 -29 -16 -49 -62 -49 -94 0 -134 114 -60
172 26 21 86 23 111 5z m226 -82 l0 -93 -62 0 c-72 0 -100 14 -118 57 -15 37
-7 75 24 106 19 19 33 23 89 23 l67 0 0 -93z m175 65 c0 -21 -6 -26 -35 -30
-35 -5 -35 -5 -40 -65 -5 -57 -7 -60 -32 -63 l-28 -3 0 94 0 95 68 -1 c64 -2
67 -3 67 -27z m260 0 c0 -21 -6 -26 -35 -30 -35 -5 -35 -5 -40 -65 -4 -54 -7
-60 -29 -63 -33 -5 -41 12 -41 90 0 96 0 96 78 95 64 -2 67 -3 67 -27z m176 9
c14 -14 19 -30 17 -52 -3 -31 -4 -32 -56 -35 -66 -4 -67 -27 -1 -27 40 0 44
-2 44 -25 0 -23 -4 -25 -57 -28 -51 -3 -61 0 -83 22 -35 35 -35 107 0 141 32
33 105 35 136 4z m109 9 c0 -9 3 -9 12 0 23 23 65 14 93 -19 23 -28 26 -39 23
-93 -3 -58 -4 -61 -28 -61 -23 0 -25 4 -30 54 -9 100 -70 95 -70 -6 0 -53 0
-54 -27 -51 -28 3 -28 4 -31 82 -2 44 -1 85 2 93 7 16 56 17 56 1z m438 0 c9
-9 12 -9 12 1 0 8 10 11 28 9 l27 -3 0 -90 0 -90 -62 -2 c-54 -2 -67 2 -93 23
-41 35 -42 95 -3 136 28 30 70 37 91 16z m-964 -327 c4 -5 -4 -7 -16 -3 -18 4
-20 2 -14 -14 5 -14 4 -16 -5 -7 -6 6 -8 16 -5 22 9 13 33 14 40 2z m194 2
c-12 -3 -18 -15 -19 -36 -1 -25 -3 -27 -6 -9 -6 33 3 52 24 51 17 -1 17 -2 1
-6z m75 0 c-18 -3 -23 -12 -24 -36 -1 -25 -3 -27 -6 -9 -7 35 4 52 29 51 l23
-2 -22 -4z m91 -9 c3 -8 2 -12 -4 -9 -6 3 -10 2 -10 -2 0 -5 -7 -18 -15 -29
-12 -15 -12 -11 2 19 19 42 19 42 27 21z m111 -21 c1 -25 -2 -30 -13 -21 -9 8
-10 14 -2 22 16 16 12 24 -12 29 -20 5 -20 5 2 4 21 -2 25 -7 25 -34z m93 25
c14 -14 16 -44 4 -52 -4 -2 -8 7 -7 22 0 42 -33 42 -38 0 l-4 -33 -1 38 c-2
30 2 37 16 37 10 0 23 -5 30 -12z m65 5 c-7 -2 -19 -2 -25 0 -7 3 -2 5 12 5
14 0 19 -2 13 -5z m-484 -33 c13 -38 4 -40 -10 -2 -11 27 -11 27 -20 5 -4 -13
-11 -23 -14 -23 -4 0 -4 3 -2 8 2 4 7 15 10 25 9 26 24 21 36 -13z m73 8 c-9
-9 -9 -15 1 -27 11 -14 10 -14 -6 -2 -13 10 -15 17 -6 27 6 8 14 14 17 14 3 0
1 -5 -6 -12z m-212 -23 c0 -8 -2 -15 -4 -15 -2 0 -6 7 -10 15 -3 8 -1 15 4 15
6 0 10 -7 10 -15z m374 -1 c3 -8 2 -12 -4 -9 -6 3 -10 10 -10 16 0 14 7 11 14
-7z"/>
<path d="M927 1500 c-106 -32 -165 -163 -121 -268 34 -83 137 -143 217 -127
117 25 194 140 166 250 -28 112 -149 179 -262 145z m122 -146 c25 -32 26 -46
6 -84 -27 -53 -103 -53 -130 0 -20 38 -19 52 6 84 16 20 29 26 59 26 30 0 43
-6 59 -26z"/>
<path d="M397 695 c-18 -18 -13 -40 11 -50 23 -9 49 21 36 42 -15 24 -29 26
-47 8z"/>
<path d="M1035 705 c-19 -14 -18 -14 13 -15 22 0 32 4 30 12 -6 18 -22 20 -43
3z"/>
<path d="M1622 698 c-25 -25 0 -64 32 -52 21 8 21 50 0 58 -20 8 -18 8 -32 -6z"/>
</g>
</svg>
